# xmcd
# 
# Track frame offsets:
#     150
#     18589
#     32674
#     53314
#     70195
#     88185
#     107590
#     130719
#     151521
#     169434
# 
# Disc length: 2474
# 
# Revision: 0
# Processed by: cddbd v1.5.2PL0 Copyright (c) Steve Scherf et al.
# Submitted via: fre:ac v1.1beta1pre4
# 
DISCID=7209a80a
DTITLE=Robin McKelle - The Looking Glass
DYEAR=2015
DGENRE=Jazz
TTITLE0=Gravity
TTITLE1=Stand Up
TTITLE2=I'm The One
TTITLE3=Forgive Me
TTITLE4=Stay
TTITLE5=Brave Love
TTITLE6=Down Without a Fight
TTITLE7=Heartbreak
TTITLE8=Advantage
TTITLE9=Get Back Yesterday
EXTD=
EXTT0=
EXTT1=
EXTT2=
EXTT3=
EXTT4=
EXTT5=
EXTT6=
EXTT7=
EXTT8=
EXTT9=
PLAYORDER=
